<svg width="712" height="388" viewBox="0 0 712 388" fill="none" xmlns="http://www.w3.org/2000/svg">
<g opacity="0.5">
<g clip-path="url(#clip0)">
<path d="M25.6786 15.1739L71.3993 8.28445L63.8835 12.6686L25.6786 15.1739ZM69.5203 8.91077L30.6891 14.5476L63.2572 12.6686L69.5203 8.91077Z" fill="#E5E5E5"/>
<path d="M359.503 56.5103L429.649 17.6791L423.386 52.7525L359.503 56.5103ZM429.023 18.9317L360.129 55.884L422.76 52.7525L429.023 18.9317Z" fill="#E5E5E5"/>
<path d="M0 37.0947L25.0524 15.1738L33.1945 91.5837L0 84.6943L33.8208 92.21L25.6787 15.1738L25.0524 14.5475L0 36.4684V37.0947Z" fill="#E5E5E5"/>
<path d="M25.6787 15.1738L25.0524 14.5475L0 25.1948L24.4261 15.8001L0 36.4684V37.0947L25.6787 15.1738Z" fill="#E5E5E5"/>
<path d="M33.8209 92.21L32.5683 52.7524L63.2575 12.6685H63.8838L33.8209 92.21ZM33.1946 52.7524L33.8209 90.9573L62.6312 13.9211L33.1946 52.7524Z" fill="#E5E5E5"/>
<path d="M33.8208 92.2101L25.0524 14.5475L63.8837 12.0423L33.8208 92.2101ZM25.6788 15.1739L33.8208 90.9575L63.2574 12.6686L25.6788 15.1739Z" fill="#E5E5E5"/>
<path d="M164.094 56.5103L152.194 52.1261L149.688 43.984L164.094 56.5103ZM152.82 52.1261L162.841 55.8839L150.315 45.2367L152.82 52.1261Z" fill="#E5E5E5"/>
<path d="M273.698 94.0889L209.188 88.4521V87.8258L261.798 12.6685L273.698 94.0889ZM210.441 87.8258L273.698 93.4626L261.798 13.9211L210.441 87.8258Z" fill="#E5E5E5"/>
<path d="M273.071 94.0889L281.213 25.1947L281.84 25.821L327.56 88.4521L273.071 94.0889ZM281.213 26.4473L273.698 93.4626L326.308 87.8258L281.213 26.4473Z" fill="#E5E5E5"/>
<path d="M273.072 93.4626L261.172 12.6685L281.214 25.821L273.072 93.4626ZM261.798 13.9211L273.072 91.5836L280.587 25.821L261.798 13.9211Z" fill="#E5E5E5"/>
<path d="M326.934 88.4522L325.055 69.0366L337.582 59.0156L326.934 88.4522ZM325.682 69.0366L326.934 87.1996L336.329 60.8946L325.682 69.0366Z" fill="#E5E5E5"/>
<path d="M326.934 88.4521L281.214 25.821L281.84 25.1947L337.582 59.0155L326.934 88.4521ZM281.84 26.4473L326.308 87.1994L336.329 59.6418L281.84 26.4473Z" fill="#E5E5E5"/>
<path d="M325.055 69.0366L358.876 55.8841L390.818 46.4894V47.1158L325.055 69.0366ZM377.666 51.4999L358.876 57.1367L339.461 64.0261L377.666 51.4999Z" fill="#E5E5E5"/>
<path d="M325.055 69.0365L336.329 59.6418L358.876 56.5103V57.1366L325.055 69.0365ZM336.955 60.2681L326.308 68.4102L356.997 57.1366L336.955 60.2681Z" fill="#E5E5E5"/>
<path d="M399.586 59.0154L390.191 47.1155L423.386 52.7523V53.3786L399.586 59.0154ZM391.444 47.7418L399.586 58.3891L422.133 52.7523L391.444 47.7418Z" fill="#E5E5E5"/>
<path d="M359.503 56.5104L391.444 46.4894L424.013 52.1262V52.7525L359.503 56.5104ZM390.818 47.7421L360.755 56.5104L420.881 53.3789L390.818 47.7421Z" fill="#E5E5E5"/>
<path d="M0 95.3416L32.5682 92.21L0 107.868L33.8208 92.21L0 94.7153V95.3416Z" fill="#E5E5E5"/>
<path d="M0 84.6942L33.1945 92.21L0 107.868L33.8208 92.21L0 84.6942Z" fill="#E5E5E5"/>
<path d="M0 90.9575L33.1945 52.7525L70.7731 116.636L0 95.9679V96.5943L72.0257 117.263L33.1945 52.1262L0 90.3311V90.9575Z" fill="#E5E5E5"/>
<path d="M0 90.9575L32.5682 53.3788L33.1945 92.2101L0 94.7153V95.3416L33.8208 92.2101L33.1945 52.1262L0 90.3311V90.9575Z" fill="#E5E5E5"/>
<path d="M120.252 131.041L70.773 117.263V80.9365H71.3993L120.252 131.041ZM71.3993 116.636L118.999 129.789L71.3993 80.9365V116.636Z" fill="#E5E5E5"/>
<path d="M71.3994 117.889L33.1944 52.7525H33.8207L72.652 80.9365H72.0257L71.3994 117.889ZM33.8207 53.3788L70.7731 116.01V80.9365L33.8207 53.3788Z" fill="#E5E5E5"/>
<path d="M119.625 130.415L151.567 52.1262H152.193L140.92 89.7048L119.625 130.415ZM150.941 56.5104L122.13 125.405L140.92 89.7048L150.941 56.5104Z" fill="#E5E5E5"/>
<path d="M119.625 131.041L70.773 80.9365L152.193 52.1262L119.625 131.041ZM71.3993 80.9365L119.625 130.415L152.193 52.7525L71.3993 80.9365Z" fill="#E5E5E5"/>
<path d="M164.72 94.7154L140.294 90.3312L164.094 55.8841L164.72 94.7154ZM141.546 89.7049L164.72 93.4627L164.094 56.5104L141.546 89.7049Z" fill="#E5E5E5"/>
<path d="M140.92 90.3311L152.194 51.4998L164.72 55.884L140.92 90.3311ZM152.82 52.1262L141.546 88.4522L164.093 56.5103L152.82 52.1262Z" fill="#E5E5E5"/>
<path d="M238.624 109.747L164.72 94.0891V93.4628L209.814 87.1996L238.624 109.747ZM165.972 94.0891L237.372 109.121L209.188 88.4523L165.972 94.0891Z" fill="#E5E5E5"/>
<path d="M164.72 94.0891L164.094 55.8841L209.814 87.826L164.72 94.0891ZM164.72 57.1367L165.346 94.0891L209.188 88.4523L164.72 57.1367Z" fill="#E5E5E5"/>
<path d="M276.203 120.394L237.998 109.747L273.698 93.4627L274.324 92.8364V93.4627L276.203 120.394ZM239.251 109.747L275.577 119.768L273.072 94.089L239.251 109.747Z" fill="#E5E5E5"/>
<path d="M238.625 109.747L209.188 87.8258L274.324 93.4626L273.698 94.0889L238.625 109.747ZM210.441 88.4521L238.625 109.747L272.445 94.0889L210.441 88.4521Z" fill="#E5E5E5"/>
<path d="M275.577 120.394L326.308 87.8258V88.4521L298.124 117.889L275.577 120.394ZM325.055 89.0784L276.203 119.768L297.498 117.262L325.055 89.0784Z" fill="#E5E5E5"/>
<path d="M275.577 120.394L273.071 93.4626L326.308 87.8258V88.4521L275.577 120.394ZM273.698 94.0889L276.203 119.768L326.308 88.4521L273.698 94.0889Z" fill="#E5E5E5"/>
<path d="M315.66 129.162L298.124 117.889L325.055 69.0364H325.681L315.66 129.162ZM298.75 117.889L315.66 128.536L325.055 70.9154L298.75 117.889Z" fill="#E5E5E5"/>
<path d="M298.75 117.889L325.682 68.4103L327.561 88.4522L298.75 117.889ZM325.055 69.6629L299.377 116.01L326.308 87.8259L325.055 69.6629Z" fill="#E5E5E5"/>
<path d="M315.034 129.162L390.818 47.1158L391.444 46.4894V47.1158L380.171 108.494L315.034 129.162ZM390.818 47.7421L316.287 127.91L378.918 108.494L390.818 47.7421Z" fill="#E5E5E5"/>
<path d="M315.661 129.162L325.055 68.4103L390.818 46.4894H391.444L315.661 129.162ZM325.055 69.0366L315.661 127.91L390.192 47.7421L325.055 69.0366Z" fill="#E5E5E5"/>
<path d="M397.707 129.789L378.918 109.12L398.96 59.0156L399.586 58.3893V59.0156L397.707 129.789ZM380.171 108.494L397.707 128.536L399.586 60.2682L380.171 108.494Z" fill="#E5E5E5"/>
<path d="M380.171 108.494L391.444 46.4894L400.213 58.3893L400.839 57.763V58.3893L380.171 108.494ZM391.444 47.7421L380.797 106.615L400.213 59.0157L391.444 47.7421Z" fill="#E5E5E5"/>
<path d="M0 100.352V100.978L42.5891 159.852L0 164.236L43.8418 160.478L0 100.352Z" fill="#E5E5E5"/>
<path d="M79.5414 172.378L42.5891 160.478L71.3994 116.636L79.5414 172.378ZM43.8417 159.852L79.5414 171.751L72.0257 117.262L43.8417 159.852Z" fill="#E5E5E5"/>
<path d="M0 95.9679V96.5942L70.7731 116.636L43.2154 159.852L0 100.352V100.978L43.2154 160.478L71.3994 116.636L0 95.9679Z" fill="#E5E5E5"/>
<path d="M79.5416 172.378L119.625 130.415H120.252L102.089 159.225L79.5416 172.378ZM118.373 132.294L80.7942 171.125L101.462 159.225L118.373 132.294Z" fill="#E5E5E5"/>
<path d="M78.9151 172.378L70.773 116.636L119.625 130.415L78.9151 172.378ZM71.3993 117.262L78.9151 171.751L118.999 131.041L71.3993 117.262Z" fill="#E5E5E5"/>
<path d="M102.089 159.225L140.92 89.7048H141.546V90.3311L136.536 124.778L102.089 159.225ZM140.294 90.9575L102.715 157.346L135.909 123.526L140.294 90.9575Z" fill="#E5E5E5"/>
<path d="M102.089 159.225L140.92 89.7048H141.546V90.3311L120.252 131.041L102.089 159.225ZM134.03 102.857L107.725 149.831L119.625 130.415L134.03 102.857Z" fill="#E5E5E5"/>
<path d="M179.125 142.941L135.91 124.778L164.72 94.0891V93.4628V94.0891L179.125 142.941ZM136.536 124.152L178.499 141.689L164.72 94.0891L136.536 124.152Z" fill="#E5E5E5"/>
<path d="M135.91 124.778L140.92 89.7048L165.346 94.089V94.7153L135.91 124.778ZM140.92 90.3311L136.536 123.526L164.094 94.089L140.92 90.3311Z" fill="#E5E5E5"/>
<path d="M191.025 172.378L178.499 142.315L237.998 109.747L238.624 109.12V110.373L191.025 172.378ZM179.125 142.315L191.025 171.125L237.998 110.373L179.125 142.315Z" fill="#E5E5E5"/>
<path d="M178.499 142.941L164.094 94.0889L238.624 109.747V110.373L178.499 142.941ZM165.346 94.7152L179.125 142.315L237.998 110.373L165.346 94.7152Z" fill="#E5E5E5"/>
<path d="M191.025 171.751L275.577 119.768L286.85 144.82L191.025 171.751ZM275.577 120.394L192.277 171.125L286.85 144.82L275.577 120.394Z" fill="#E5E5E5"/>
<path d="M191.025 171.752L238.624 109.12L276.203 119.768L275.577 120.394L191.025 171.752ZM238.624 109.747L191.651 170.499L274.95 120.394L238.624 109.747Z" fill="#E5E5E5"/>
<path d="M286.85 145.446L282.466 132.294L298.124 117.889H298.75L286.85 145.446ZM283.092 132.294L286.85 144.194L297.497 118.515L283.092 132.294Z" fill="#E5E5E5"/>
<path d="M287.477 145.447L275.577 119.768L298.75 117.263L287.477 145.447ZM276.203 120.394L287.477 144.194L298.124 117.889L276.203 120.394Z" fill="#E5E5E5"/>
<path d="M358.876 151.71L283.092 132.294V131.668L315.661 127.91L358.876 151.71ZM284.345 132.294L356.997 150.457L315.661 128.536L284.345 132.294Z" fill="#E5E5E5"/>
<path d="M282.466 132.294L298.75 117.263L316.287 127.91L316.913 128.536H316.287V129.162L315.66 128.536L282.466 132.294ZM298.75 117.889L284.345 131.668L315.66 128.536L298.75 117.889Z" fill="#E5E5E5"/>
<path d="M345.724 163.61L378.918 109.12H379.544L358.876 151.71L345.724 163.61ZM377.039 112.878L346.35 161.731L357.624 151.083L377.039 112.878Z" fill="#E5E5E5"/>
<path d="M358.876 151.71L315.034 128.536L380.171 108.494L358.876 151.71ZM316.287 128.536L358.25 151.083L378.918 109.12L316.287 128.536Z" fill="#E5E5E5"/>
<path d="M345.097 163.609L397.707 129.162L443.428 162.983L345.097 163.609ZM397.707 129.162L346.35 162.983L442.175 162.357L397.707 129.162Z" fill="#E5E5E5"/>
<path d="M345.724 163.609L379.544 108.494L397.707 129.162L345.724 163.609ZM379.544 109.12L346.35 162.357L397.081 129.162L379.544 109.12Z" fill="#E5E5E5"/>
<path d="M0 196.178V196.804L9.39466 203.693L0 199.309V199.935L11.2736 205.572L11.8999 204.946L0 196.178Z" fill="#E5E5E5"/>
<path d="M11.2735 205.572L43.8417 159.852L53.8626 194.925L11.2735 205.572ZM43.2154 160.478L12.5261 204.32L53.2363 193.672L43.2154 160.478Z" fill="#E5E5E5"/>
<path d="M43.2154 159.852L0 164.236L42.5891 160.478L11.2736 204.946L0 196.178V196.804L11.8999 205.572L43.2154 160.478V159.852Z" fill="#E5E5E5"/>
<path d="M52.6103 194.925L55.7418 176.762L78.9153 171.752L52.6103 194.925ZM56.3681 177.388L53.2366 193.672L78.289 172.378L56.3681 177.388Z" fill="#E5E5E5"/>
<path d="M53.2366 194.925L43.2156 159.852L80.1679 171.751H79.5416L53.2366 194.925ZM43.8419 160.478L53.2366 193.672L78.9153 171.751L43.8419 160.478Z" fill="#E5E5E5"/>
<path d="M93.3205 186.157L55.7418 176.762L102.715 158.599V159.225L93.3205 186.157ZM56.9944 177.388L92.6941 186.157L101.463 159.852L56.9944 177.388Z" fill="#E5E5E5"/>
<path d="M56.368 177.388L102.089 158.599V159.225L79.5415 171.752L56.368 177.388ZM98.9571 160.478L59.4995 176.136L79.5415 171.752L98.9571 160.478Z" fill="#E5E5E5"/>
<path d="M136.536 210.583L92.6939 186.157L136.536 123.526V210.583ZM93.3202 186.157L135.909 209.956V124.778L93.3202 186.157Z" fill="#E5E5E5"/>
<path d="M93.3205 186.157L101.463 159.225L135.91 124.152H136.536L93.3205 186.157ZM102.089 159.225L93.9468 184.904L134.657 126.657L102.089 159.225Z" fill="#E5E5E5"/>
<path d="M136.536 210.583L149.062 174.257L178.498 142.315H179.125L136.536 210.583ZM149.062 174.257L137.162 208.704L177.246 144.82L149.062 174.257Z" fill="#E5E5E5"/>
<path d="M135.91 211.209V124.152L179.125 142.315L135.91 211.209ZM136.536 124.778V209.957L178.499 142.941L136.536 124.778Z" fill="#E5E5E5"/>
<path d="M231.735 186.157L149.062 174.257V173.63L191.025 171.125L231.735 186.157ZM151.567 174.257L229.856 185.53L191.025 171.752L151.567 174.257Z" fill="#E5E5E5"/>
<path d="M148.436 174.257L178.499 141.689L191.025 171.752L148.436 174.257ZM178.499 142.941L149.688 173.63L190.399 171.125L178.499 142.941Z" fill="#E5E5E5"/>
<path d="M231.735 186.157L286.85 144.194H287.477V144.82L274.324 166.115L231.735 186.157ZM286.224 145.446L233.614 184.904L273.698 166.115L286.224 145.446Z" fill="#E5E5E5"/>
<path d="M231.735 186.157L189.772 171.751L286.85 144.82L231.735 186.157ZM191.651 171.751L231.735 185.53L285.598 144.82L191.651 171.751Z" fill="#E5E5E5"/>
<path d="M315.661 191.167L274.324 166.115L283.092 131.668L315.661 191.167ZM274.324 166.115L313.782 190.541L282.466 132.92L274.324 166.115Z" fill="#E5E5E5"/>
<path d="M274.324 166.115L282.466 132.294V131.668V132.294L283.092 131.668V132.294L287.477 144.82L274.324 166.115ZM283.092 132.92L274.95 164.236L286.85 144.194L283.092 132.92Z" fill="#E5E5E5"/>
<path d="M314.408 191.167L358.876 151.083L358.25 182.399L314.408 191.167ZM358.25 151.71L315.661 189.915L358.25 181.772V151.71Z" fill="#E5E5E5"/>
<path d="M315.034 191.167L282.466 131.668L358.876 151.083L315.034 191.167ZM283.719 132.294L315.034 189.914L358.25 151.083L283.719 132.294Z" fill="#E5E5E5"/>
<path d="M358.25 182.399L345.097 162.983L374.534 172.378L358.25 182.399ZM346.35 163.609L358.25 181.772L373.907 172.378L346.35 163.609Z" fill="#E5E5E5"/>
<path d="M358.25 183.025L345.097 162.983L358.25 150.457V183.025ZM346.35 162.983L358.25 181.146L358.876 151.71L346.35 162.983Z" fill="#E5E5E5"/>
<path d="M419.002 173.63L374.534 172.378V171.752L443.428 161.731L419.002 173.63ZM377.039 171.752L418.376 173.004L440.923 162.983L377.039 171.752Z" fill="#E5E5E5"/>
<path d="M374.534 172.378L345.724 163.609V162.983L442.802 162.357V162.983L374.534 172.378ZM347.603 163.609L374.534 172.378L439.67 162.983L347.603 163.609Z" fill="#E5E5E5"/>
<path d="M14.4051 202.441L0 209.957V210.583L12.5262 203.693L11.2736 204.946L0 210.583V211.209L11.8999 205.572L14.4051 203.067V202.441Z" fill="#E5E5E5"/>
<path d="M19.4155 233.13L14.4051 202.441L53.8626 193.672L53.2363 194.299L19.4155 233.13ZM14.4051 203.067L19.4155 231.877L52.61 194.925L14.4051 203.067Z" fill="#E5E5E5"/>
<path d="M11.9001 205.572L14.4053 202.441L53.8629 193.672L53.2366 194.299L11.9001 205.572ZM14.4053 203.067L12.5264 204.32L41.963 196.804L14.4053 203.067Z" fill="#E5E5E5"/>
<path d="M19.4155 232.504L56.3678 176.136V176.762L53.8626 211.835L19.4155 232.504ZM55.7415 178.015L20.0418 231.877L53.2363 212.462L55.7415 178.015Z" fill="#E5E5E5"/>
<path d="M19.4155 232.504L55.7415 176.762H56.3678L53.2363 194.299L19.4155 232.504ZM55.7415 178.015L21.2944 229.372L52.61 193.672L55.7415 178.015Z" fill="#E5E5E5"/>
<path d="M53.2364 212.462L92.694 185.53L113.989 201.814L53.2364 212.462ZM92.694 186.157L54.489 211.835L113.362 201.814L92.694 186.157Z" fill="#E5E5E5"/>
<path d="M53.2364 213.088L55.7417 176.762L92.694 185.53L53.2364 213.088ZM56.368 177.388L53.8627 211.835L92.694 186.157L56.368 177.388Z" fill="#E5E5E5"/>
<path d="M143.425 244.404L112.736 201.188L135.909 209.956L136.536 210.583H135.909L143.425 244.404ZM114.615 202.441L143.425 243.151L135.909 210.583L114.615 202.441Z" fill="#E5E5E5"/>
<path d="M137.162 211.209L113.989 201.814L93.3205 186.157V185.53L136.536 209.956L137.162 211.209ZM113.989 201.814L133.404 209.33L95.8257 188.662L113.989 201.814Z" fill="#E5E5E5"/>
<path d="M143.425 244.404L148.436 173.63L199.167 230.625H198.541L143.425 244.404ZM149.062 174.883L144.052 243.777L198.541 229.998L149.062 174.883Z" fill="#E5E5E5"/>
<path d="M143.425 244.404L135.91 210.583L149.062 174.257H149.688L143.425 244.404ZM136.536 210.583L144.052 242.525L149.062 175.509L136.536 210.583Z" fill="#E5E5E5"/>
<path d="M198.541 230.625L231.735 186.157V185.53V186.157V186.783L232.361 227.493L198.541 230.625ZM231.735 186.783L199.167 229.998L231.735 226.24V186.783Z" fill="#E5E5E5"/>
<path d="M199.167 230.625L148.436 173.63L231.735 185.53L199.167 230.625ZM149.688 174.257L199.167 229.372L231.735 186.157L149.688 174.257Z" fill="#E5E5E5"/>
<path d="M231.735 226.867L273.698 166.115H274.324L266.182 225.614L231.735 226.867ZM273.698 166.741L232.361 225.614L265.556 224.362L273.698 166.741Z" fill="#E5E5E5"/>
<path d="M232.361 226.867L231.735 186.157L274.95 165.488L232.361 226.867ZM232.361 186.157L232.988 225.614L273.698 166.741L232.361 186.157Z" fill="#E5E5E5"/>
<path d="M311.903 250.667L265.556 224.988L314.408 190.541H315.035L311.903 250.667ZM266.809 224.988L311.903 250.04L315.035 191.167L266.809 224.988Z" fill="#E5E5E5"/>
<path d="M265.556 225.614L273.698 165.488L315.035 190.541H314.408L265.556 225.614ZM274.324 166.115L266.182 224.362L314.408 190.541L274.324 166.115Z" fill="#E5E5E5"/>
<path d="M311.903 250.667L322.55 201.188L358.25 182.399V183.025L311.903 250.667ZM323.176 201.188L312.529 249.414L357.623 183.025L323.176 201.188Z" fill="#E5E5E5"/>
<path d="M311.277 251.293L314.408 190.541L358.25 181.772L311.277 251.293ZM315.034 191.167L311.903 250.04L357.624 183.025L315.034 191.167Z" fill="#E5E5E5"/>
<path d="M383.928 247.535L322.55 201.188H323.176L374.534 172.378L383.928 247.535ZM323.176 201.188L383.302 246.282L373.907 172.378L323.176 201.188Z" fill="#E5E5E5"/>
<path d="M323.176 201.188L374.534 171.752V172.378L358.25 182.399L323.176 201.188ZM365.765 177.388L341.965 190.541L358.25 181.773L365.765 177.388Z" fill="#E5E5E5"/>
<path d="M383.302 247.535L419.002 173.004H419.628L405.849 233.13L383.302 247.535ZM418.376 174.883L384.555 245.656L405.849 232.504L418.376 174.883Z" fill="#E5E5E5"/>
<path d="M383.302 247.535L373.908 171.752L418.376 173.004L383.302 247.535ZM374.534 172.378L383.929 245.656L418.376 173.004L374.534 172.378Z" fill="#E5E5E5"/>
<path d="M0 214.341L12.5262 204.32L0 218.725V219.351L14.4051 203.067V202.441L0 213.714V214.341Z" fill="#E5E5E5"/>
<path d="M0 238.14L18.7893 232.504L25.6787 275.719L0 266.324V266.951L26.3051 276.345L19.4156 231.877L0 237.514V238.14Z" fill="#E5E5E5"/>
<path d="M19.4156 232.504L14.4051 202.441L0 213.714V214.341L14.4051 203.067L18.7893 232.504L0 237.514V238.141L19.4156 232.504Z" fill="#E5E5E5"/>
<path d="M75.7835 281.356L25.6786 276.345L53.2363 212.462V211.835V212.462L75.7835 281.356ZM26.3049 275.719L74.5308 280.73L53.2363 213.088L26.3049 275.719Z" fill="#E5E5E5"/>
<path d="M26.3051 276.972L18.7893 232.504L53.2364 212.462V213.088L26.3051 276.972ZM19.4156 232.504L26.3051 275.093L53.2364 213.088L19.4156 232.504Z" fill="#E5E5E5"/>
<path d="M88.3099 288.245L75.1573 281.356L113.362 201.814H113.989L88.3099 288.245ZM75.7836 280.73L88.3099 287.619L112.736 204.32L75.7836 280.73Z" fill="#E5E5E5"/>
<path d="M75.1573 281.982L53.2364 211.835L113.989 201.188L75.1573 281.982ZM53.8627 212.462L75.1573 280.103L113.362 201.814L53.8627 212.462Z" fill="#E5E5E5"/>
<path d="M151.567 292.63L87.6835 288.245L144.051 243.777L151.567 292.63ZM88.9361 288.245L150.941 292.003L143.425 245.03L88.9361 288.245Z" fill="#E5E5E5"/>
<path d="M88.3097 288.872L113.988 201.188L144.051 243.777L88.3097 288.872ZM113.988 202.441L88.936 287.619L143.425 244.404L113.988 202.441Z" fill="#E5E5E5"/>
<path d="M151.567 292.629L199.167 229.998V230.625V256.93L151.567 292.629ZM198.541 230.625L152.194 290.751L197.914 256.303L198.541 230.625Z" fill="#E5E5E5"/>
<path d="M150.941 292.629L143.425 243.777L199.167 229.372L150.941 292.629ZM144.052 244.404L151.567 291.377L198.541 230.625L144.052 244.404Z" fill="#E5E5E5"/>
<path d="M206.056 258.182L198.541 256.303L232.361 225.614L232.988 226.24L206.056 258.182ZM199.167 256.303L205.43 257.556L229.856 228.119L199.167 256.303Z" fill="#E5E5E5"/>
<path d="M198.541 256.93V229.998L232.988 226.241L198.541 256.93ZM199.167 229.998V255.677L231.735 226.867L199.167 229.998Z" fill="#E5E5E5"/>
<path d="M249.898 268.203L204.804 258.182H205.43L266.182 224.988V225.614L249.898 268.203ZM206.056 258.182L249.272 267.577L265.556 225.614L206.056 258.182Z" fill="#E5E5E5"/>
<path d="M206.056 258.182L232.361 226.241L266.182 224.988V225.614L206.056 258.182ZM232.361 226.867L206.683 257.556L264.93 225.614L232.361 226.867Z" fill="#E5E5E5"/>
<path d="M249.272 268.203L311.276 250.04L321.297 265.698L249.272 268.203ZM311.276 250.667L251.151 267.577L320.671 265.698L311.276 250.667Z" fill="#E5E5E5"/>
<path d="M249.272 268.203L266.182 224.988L311.903 250.667L249.272 268.203ZM266.182 225.614L249.898 267.577L310.65 250.667L266.182 225.614Z" fill="#E5E5E5"/>
<path d="M321.297 266.324L322.55 201.188L351.987 250.667L321.297 266.324ZM323.176 201.814L321.924 265.698L351.987 250.04L323.176 201.814Z" fill="#E5E5E5"/>
<path d="M321.924 266.951L311.277 250.667L322.55 200.562L323.176 201.188L321.924 266.951ZM311.903 250.667L321.298 265.698L322.55 203.693L311.903 250.667Z" fill="#E5E5E5"/>
<path d="M398.334 280.103L351.987 249.414L384.555 246.283L398.334 280.103ZM352.613 250.04L397.081 278.851L383.302 246.909L352.613 250.04Z" fill="#E5E5E5"/>
<path d="M351.987 250.04L322.55 201.188H323.176L384.555 247.535H383.928L351.987 250.04ZM323.803 201.814L352.613 249.414L383.302 246.282L323.803 201.814Z" fill="#E5E5E5"/>
<path d="M397.707 279.477L392.697 250.667L405.849 232.504H406.476L397.707 279.477ZM393.323 251.293L397.707 278.224L405.849 233.756L393.323 251.293Z" fill="#E5E5E5"/>
<path d="M397.707 280.73L383.302 246.909L406.476 232.504L397.707 280.73ZM383.929 246.909L397.707 278.851L405.849 233.756L383.929 246.909Z" fill="#E5E5E5"/>
<path d="M26.3051 275.719L1.25262 285.74L0 286.366V286.993L26.3051 276.345V275.719Z" fill="#E5E5E5"/>
<path d="M0 266.324V266.951L25.6787 276.345L0 286.366V286.993L26.3051 276.345V275.719L0 266.324Z" fill="#E5E5E5"/>
<path d="M67.6417 287.619L1.25271 285.74V285.114L75.1574 280.73L67.6417 287.619ZM6.2632 285.74L67.0153 287.619L74.5311 281.356L6.2632 285.74Z" fill="#E5E5E5"/>
<path d="M1.25271 285.74L25.6788 275.719L75.7837 280.73L75.1574 281.356L1.25271 285.74ZM26.3051 276.345L3.13164 285.74L72.6522 281.356L26.3051 276.345Z" fill="#E5E5E5"/>
<path d="M92.0677 294.508L67.0153 288.245V287.619L88.3099 288.245L92.0677 294.508ZM69.5206 288.245L91.4414 293.882L88.3099 288.872L69.5206 288.245Z" fill="#E5E5E5"/>
<path d="M88.9362 288.245L67.0153 287.619L75.7837 280.73L88.9362 288.245ZM68.2679 287.619L87.6836 288.245L75.7837 281.982L68.2679 287.619Z" fill="#E5E5E5"/>
<path d="M91.4412 294.508L160.335 283.235L150.941 292.63L91.4412 294.508ZM159.083 283.861L95.1991 293.882L150.941 292.003L159.083 283.861Z" fill="#E5E5E5"/>
<path d="M91.4414 294.508L87.6835 288.245L150.941 292.003V292.629L91.4414 294.508ZM88.9361 288.245L92.0677 293.882L146.557 292.003L88.9361 288.245Z" fill="#E5E5E5"/>
<path d="M168.478 290.751L159.709 283.235L198.541 256.304V256.93L168.478 290.751ZM160.336 283.235L168.478 289.498L197.288 257.556L160.336 283.235Z" fill="#E5E5E5"/>
<path d="M151.567 292.63L160.336 283.235L199.167 256.304V256.93L151.567 292.63ZM187.893 263.819L159.709 283.235L153.446 289.498L187.893 263.819Z" fill="#E5E5E5"/>
<path d="M208.561 303.277L167.851 290.124L205.43 257.556L208.561 303.277ZM169.104 290.124L208.561 302.65L206.056 258.809L169.104 290.124Z" fill="#E5E5E5"/>
<path d="M168.478 290.124L198.541 256.304L205.43 258.182L168.478 290.124ZM198.541 256.93L170.983 287.619L204.804 258.182L198.541 256.93Z" fill="#E5E5E5"/>
<path d="M207.935 303.277L249.898 266.951V267.577L264.93 294.508L207.935 303.277ZM249.272 268.203L209.188 302.65L264.303 294.508L249.272 268.203Z" fill="#E5E5E5"/>
<path d="M207.935 303.277L205.43 257.556L249.272 267.577V268.203L207.935 303.277ZM206.056 258.182L208.561 302.024L249.272 267.577L206.056 258.182Z" fill="#E5E5E5"/>
<path d="M264.303 295.135L321.298 266.324H321.924V266.951L289.982 294.508L264.303 295.135ZM320.045 266.951L265.556 294.508L289.356 293.882L320.045 266.951Z" fill="#E5E5E5"/>
<path d="M264.303 295.135L249.272 267.577H249.898L321.924 265.698V266.324L264.303 295.135ZM249.898 268.203L264.303 294.509L320.045 266.324L249.898 268.203Z" fill="#E5E5E5"/>
<path d="M288.729 293.882L289.355 293.256L351.987 249.414L352.613 250.04L317.539 291.377L288.729 293.882ZM350.734 251.293L290.608 293.256L316.913 290.751L350.734 251.293Z" fill="#E5E5E5"/>
<path d="M289.982 293.882L321.924 265.698L352.613 250.04V250.667L289.982 293.882ZM348.855 251.919L321.297 266.325L292.487 290.751L348.855 251.919Z" fill="#E5E5E5"/>
<path d="M341.966 293.882L316.913 291.377V290.751L397.707 279.477V280.103L341.966 293.882ZM318.792 290.751L341.966 293.256L393.323 280.103L318.792 290.751Z" fill="#E5E5E5"/>
<path d="M316.287 291.377L351.987 250.04L397.707 280.103L316.287 291.377ZM351.987 250.04L317.54 290.124L396.455 278.851L351.987 250.04Z" fill="#E5E5E5"/>
<path d="M437.165 330.208L341.339 293.882L392.697 251.293L437.165 330.208ZM342.592 293.882L436.539 329.582L393.323 251.919L342.592 293.882Z" fill="#E5E5E5"/>
<path d="M341.966 293.882L393.323 250.667L397.707 280.103L341.966 293.882ZM392.697 251.293L342.592 293.256L397.081 279.477L392.697 251.293Z" fill="#E5E5E5"/>
<path d="M168.478 337.724L105.847 320.814H106.473L160.336 283.235V283.861L168.478 337.724ZM107.099 320.814L167.851 337.098L159.709 283.861L107.099 320.814Z" fill="#E5E5E5"/>
<path d="M106.473 321.44L91.4412 293.882H92.0675L159.709 283.235V283.861L106.473 321.44ZM92.0675 294.508L106.473 320.814L159.083 283.861L92.0675 294.508Z" fill="#E5E5E5"/>
<path d="M208.562 369.666L168.478 337.724V290.124H169.104L208.562 369.666ZM168.478 337.724L207.935 368.413L168.478 291.377V337.724Z" fill="#E5E5E5"/>
<path d="M168.478 337.724L159.709 283.235L168.478 290.124V337.724ZM160.336 283.861L168.478 334.592V290.124L160.336 283.861Z" fill="#E5E5E5"/>
<path d="M209.188 370.292L190.399 340.856L208.562 303.277H209.188V370.292ZM190.399 340.229L208.562 368.413V303.903L190.399 340.229Z" fill="#E5E5E5"/>
<path d="M208.561 369.666L167.851 289.498L208.561 302.65V369.666ZM169.104 290.751L208.561 368.413V303.277L169.104 290.751Z" fill="#E5E5E5"/>
<path d="M259.293 352.129L189.772 340.856L190.398 340.229L264.929 293.882L259.293 352.129ZM191.025 340.229L259.293 351.503L264.929 295.135L191.025 340.229Z" fill="#E5E5E5"/>
<path d="M189.772 340.855L208.561 302.65L264.929 294.508L189.772 340.855ZM208.561 303.277L191.025 339.603L263.677 295.135L208.561 303.277Z" fill="#E5E5E5"/>
<path d="M258.666 352.129L289.356 293.256H289.982L269.314 346.492L258.666 352.129ZM288.103 297.64L259.919 351.503L269.314 345.866L288.103 297.64Z" fill="#E5E5E5"/>
<path d="M259.293 352.129L264.303 294.508L289.982 293.256L289.356 293.882L259.293 352.129ZM264.93 295.135L259.293 350.876L289.356 293.882L264.93 295.135Z" fill="#E5E5E5"/>
<path d="M269.314 346.492L289.356 293.882L316.913 291.377H317.54V292.003L269.314 346.492ZM289.982 293.882L270.566 345.24L316.913 291.377L289.982 293.882Z" fill="#E5E5E5"/>
<path d="M148.436 387.202L181.63 354.008L209.188 368.413L148.436 387.202ZM181.63 355.26L149.688 386.576L208.562 369.039L181.63 355.26Z" fill="#E5E5E5"/>
<path d="M148.436 387.829L168.478 337.724L209.188 369.666L148.436 387.829ZM168.478 337.724L149.062 386.576L208.562 369.04L168.478 337.724Z" fill="#E5E5E5"/>
<path d="M209.188 369.666L181.004 354.634L189.772 339.603L209.188 369.666ZM181.63 354.634L207.935 368.413L190.399 340.855L181.63 354.634Z" fill="#E5E5E5"/>
<path d="M265.556 382.818L259.293 351.503L269.314 345.866V345.24V345.866V346.492L265.556 382.818ZM259.293 352.129L265.556 381.566L269.314 346.492L259.293 352.129Z" fill="#E5E5E5"/>
<path d="M382.05 45.863L422.134 1.39496L439.67 22.0632L382.05 45.863ZM422.134 2.02127L382.676 44.6104L439.044 21.4369L422.134 2.02127Z" fill="#E5E5E5"/>
<path d="M439.67 22.0633L485.391 15.1739L477.875 19.5581L439.67 22.0633ZM484.138 15.8002L444.681 21.437L477.249 19.5581L484.138 15.8002Z" fill="#E5E5E5"/>
<path d="M439.67 22.0632L421.507 1.39496L485.391 15.1738L484.765 15.8001L439.67 22.0632ZM422.76 2.02127L439.67 21.4369L483.512 15.1738L422.76 2.02127Z" fill="#E5E5E5"/>
<path d="M532.364 23.9421L477.249 19.558V18.9317L521.091 13.9212L532.364 23.9421ZM480.38 19.558L531.738 23.3158L521.717 14.5475L480.38 19.558Z" fill="#E5E5E5"/>
<path d="M477.875 19.558L485.391 14.5475L521.717 13.9212H522.343V14.5475L477.875 19.558ZM484.764 15.8001L478.501 19.558L516.08 15.1738L484.764 15.8001Z" fill="#E5E5E5"/>
<path d="M370.15 82.8153L366.392 69.6628L381.423 45.2367H382.05L370.15 82.8153ZM367.018 70.2891L370.15 81.5627L380.797 47.1156L367.018 70.2891Z" fill="#E5E5E5"/>
<path d="M447.812 99.7259L369.523 82.1892L439.044 21.437L447.812 99.7259ZM370.776 82.1892L447.812 99.0995L439.044 22.6896L370.776 82.1892Z" fill="#E5E5E5"/>
<path d="M369.523 82.8153L381.423 45.2366L439.044 22.0631L369.523 82.8153ZM382.05 45.863L370.776 81.5627L438.417 22.6895L382.05 45.863Z" fill="#E5E5E5"/>
<path d="M447.812 99.0994L446.559 59.6418L477.249 19.5579H477.875V20.1842L447.812 99.0994ZM447.186 59.6418L447.812 97.8468L476.622 20.8105L447.186 59.6418Z" fill="#E5E5E5"/>
<path d="M447.812 99.0994L439.044 21.4369L477.875 18.9316V19.5579L447.812 99.0994ZM439.67 22.0632L447.812 97.8468L477.249 20.1842L439.67 22.0632Z" fill="#E5E5E5"/>
<path d="M485.391 87.8259L446.559 59.6419L531.738 23.3158V23.9421L485.391 87.8259ZM447.812 59.6419L485.391 87.1995L531.111 23.9421L447.812 59.6419Z" fill="#E5E5E5"/>
<path d="M446.559 60.2681L477.875 19.5579L531.738 23.9421V24.5684H531.111L446.559 60.2681ZM477.875 20.1842L447.812 59.6418L530.485 24.5684L477.875 20.1842Z" fill="#E5E5E5"/>
<path d="M578.085 63.3997L566.185 59.0155L563.68 50.8735L578.085 63.3997ZM566.811 59.0155L577.459 62.7734L564.932 52.1261L566.811 59.0155Z" fill="#E5E5E5"/>
<path d="M687.689 100.978L623.179 95.3416L675.163 20.1843L687.689 100.978ZM624.432 94.7153L687.689 100.352L675.789 20.8106L624.432 94.7153Z" fill="#E5E5E5"/>
<path d="M687.063 100.978L695.205 32.0841L695.831 32.7104L741.552 95.3415L687.063 100.978ZM695.205 33.3368L687.689 100.352L740.299 94.7152L695.205 33.3368Z" fill="#E5E5E5"/>
<path d="M687.063 100.978L675.79 20.1843L695.831 33.3369L687.063 100.978ZM676.416 20.8106L687.689 98.4732L695.205 33.3369L676.416 20.8106Z" fill="#E5E5E5"/>
<path d="M740.926 95.9679L695.205 33.3368V32.7105L750.947 66.5313L740.926 95.9679ZM696.458 33.9631L740.926 94.7153L750.947 67.1576L696.458 33.9631Z" fill="#E5E5E5"/>
<path d="M382.05 129.789L369.523 81.5627L388.313 93.4626L382.05 129.789ZM370.776 82.8153L382.676 128.536L388.313 94.0889L370.776 82.8153Z" fill="#E5E5E5"/>
<path d="M382.676 129.789L410.233 101.605L447.812 98.4731V99.0995L382.676 129.789ZM410.233 102.231L383.928 128.536L446.559 99.0995L410.233 102.231Z" fill="#E5E5E5"/>
<path d="M382.05 129.789L369.523 81.5627H370.15L447.812 98.4731L382.05 129.789ZM370.776 82.189L382.676 129.162L447.186 99.0994L370.776 82.189Z" fill="#E5E5E5"/>
<path d="M486.017 124.152L409.607 102.231L447.186 59.0156L486.017 124.152ZM410.234 102.231L484.765 123.526L447.186 60.2682L410.234 102.231Z" fill="#E5E5E5"/>
<path d="M409.607 102.231L447.812 59.0156L448.439 99.0995L409.607 102.231ZM447.186 60.2682L410.86 101.605L447.812 98.4732L447.186 60.2682Z" fill="#E5E5E5"/>
<path d="M534.243 137.931L484.765 124.152V87.8258H485.391L534.243 137.931ZM485.391 123.526L532.991 136.678L485.391 87.8258V123.526Z" fill="#E5E5E5"/>
<path d="M485.391 124.778L447.186 59.6418H447.812L486.644 87.8258H486.017L485.391 124.778ZM447.812 60.8944L484.765 123.526V88.4521L447.812 60.8944Z" fill="#E5E5E5"/>
<path d="M534.243 137.304L566.185 59.0156L566.811 58.3893V59.0156L555.537 96.5942L534.243 137.304ZM564.932 63.3998L536.122 132.294L554.911 96.5942L564.932 63.3998Z" fill="#E5E5E5"/>
<path d="M533.617 137.931L484.765 87.8259H485.391L566.811 59.0156L567.438 58.3893L566.811 59.0156L533.617 137.931ZM486.017 87.8259L534.243 137.304L566.811 59.6419L486.017 87.8259Z" fill="#E5E5E5"/>
<path d="M579.337 101.605L554.911 97.2204L578.711 62.7733V63.3997L579.337 101.605ZM555.538 96.5941L578.711 100.352L578.085 64.026L555.538 96.5941Z" fill="#E5E5E5"/>
<path d="M554.911 97.2206L566.185 59.0156L578.711 63.3998L554.911 97.2206ZM566.811 59.6419L555.538 95.3417L578.085 63.3998L566.811 59.6419Z" fill="#E5E5E5"/>
<path d="M652.616 117.262L578.711 101.605V100.978L623.806 95.3416L652.616 117.262ZM579.964 100.978L651.363 116.01L623.806 95.3416L579.964 100.978Z" fill="#E5E5E5"/>
<path d="M578.711 101.605L578.085 63.3997L623.805 95.3416L624.432 95.9679H623.805L578.711 101.605ZM578.711 64.026L579.337 100.978L623.179 95.3416L578.711 64.026Z" fill="#E5E5E5"/>
<path d="M690.194 127.283L651.989 116.636L687.689 100.352H688.315V100.978L690.194 127.283ZM653.242 116.636L689.568 126.657L687.063 100.978L653.242 116.636Z" fill="#E5E5E5"/>
<path d="M652.616 117.262L623.179 95.3416L688.316 100.978L687.689 101.605L652.616 117.262ZM624.432 95.3416L652.616 116.636L686.437 100.978L624.432 95.3416Z" fill="#E5E5E5"/>
<path d="M689.568 127.283L740.299 94.7153V95.3416L712.115 124.778L689.568 127.283ZM739.673 96.5942L690.821 127.283L712.115 124.778L739.673 96.5942Z" fill="#E5E5E5"/>
<path d="M689.568 127.283L687.063 100.352L741.552 94.7153L740.926 95.3416L689.568 127.283ZM687.689 100.978L690.195 126.657L740.299 95.3416L687.689 100.978Z" fill="#E5E5E5"/>
<path d="M375.16 175.509L351.987 167.367L382.676 129.162L375.16 175.509ZM353.239 166.741L375.16 174.257L382.676 130.415L353.239 166.741Z" fill="#E5E5E5"/>
<path d="M374.534 175.509L409.607 102.231L457.207 167.367L374.534 175.509ZM410.234 102.857L375.786 174.883L457.207 167.367L410.234 102.857Z" fill="#E5E5E5"/>
<path d="M375.16 174.883L382.05 129.162L409.607 101.605H410.234L409.607 102.231L375.16 174.883ZM382.676 129.789L375.787 173.63L409.607 103.484L382.676 129.789Z" fill="#E5E5E5"/>
<path d="M493.533 179.267L457.207 167.367L485.391 123.526L493.533 179.267ZM457.833 166.741L493.533 178.641L486.017 124.152L457.833 166.741Z" fill="#E5E5E5"/>
<path d="M457.207 167.367L409.607 101.605L486.017 123.526L457.207 167.367ZM410.86 102.857L457.207 166.741L484.765 124.152L410.86 102.857Z" fill="#E5E5E5"/>
<path d="M493.533 179.267L533.617 137.305H534.243L516.08 166.115L493.533 179.267ZM532.364 139.183L494.785 178.015L515.454 166.115L532.364 139.183Z" fill="#E5E5E5"/>
<path d="M492.907 179.267L484.765 123.526L533.617 137.304L492.907 179.267ZM485.391 124.152L493.533 178.641L533.617 137.931L485.391 124.152Z" fill="#E5E5E5"/>
<path d="M516.08 166.115L554.911 96.5943H555.538L550.527 131.041L516.08 166.115ZM554.285 98.4733L516.707 164.862L549.901 131.041L554.285 98.4733Z" fill="#E5E5E5"/>
<path d="M516.08 166.115L554.911 96.5943H555.538L534.243 137.305L516.08 166.115ZM548.022 109.747L521.717 156.72L533.617 137.305L548.022 109.747Z" fill="#E5E5E5"/>
<path d="M593.116 149.831L549.901 131.668L579.337 100.978V101.605L593.116 149.831ZM550.527 131.041L592.49 148.578L578.711 101.605L550.527 131.041Z" fill="#E5E5E5"/>
<path d="M549.901 132.294L554.911 97.2204L579.337 101.605L549.901 132.294ZM554.911 97.2204L550.527 130.415L578.085 100.978L554.911 97.2204Z" fill="#E5E5E5"/>
<path d="M605.016 179.267L592.49 149.204L652.616 116.636L653.242 116.01V116.636L605.016 179.267ZM593.116 149.204L605.016 178.015L651.989 117.262L593.116 149.204Z" fill="#E5E5E5"/>
<path d="M592.49 149.831L578.085 100.978L652.616 116.636V117.262L592.49 149.831ZM579.337 101.605L593.116 149.204L651.989 117.262L579.337 101.605Z" fill="#E5E5E5"/>
<path d="M605.016 179.267L689.568 127.284V127.91L700.842 152.962L605.016 179.267ZM689.568 127.284L606.269 178.015L700.842 151.71L689.568 127.284Z" fill="#E5E5E5"/>
<path d="M605.016 179.267L652.616 116.636L690.194 127.283L605.016 179.267ZM652.616 117.262L605.642 178.015L688.942 127.283L652.616 117.262Z" fill="#E5E5E5"/>
<path d="M701.468 152.336L697.084 139.183L712.742 124.778H713.368V125.405L701.468 152.336ZM697.71 139.183L701.468 151.083L712.115 125.405L697.71 139.183Z" fill="#E5E5E5"/>
<path d="M701.468 152.336L689.568 126.657L712.741 124.152H713.368V124.778L701.468 152.336ZM690.194 127.284L701.468 151.083L712.115 124.778L690.194 127.284Z" fill="#E5E5E5"/>
<path d="M751.573 152.962L698.336 139.183L729.652 136.052L751.573 147.325V146.699L730.278 135.425L697.084 139.183L751.573 152.962Z" fill="#E5E5E5"/>
<path d="M696.458 139.183L712.742 124.152L730.278 134.799H730.905H730.278L696.458 139.183ZM712.742 124.778L698.337 138.557L729.652 135.426L712.742 124.778Z" fill="#E5E5E5"/>
<path d="M425.265 212.462L334.45 168.62V167.994L374.534 174.257L425.265 212.462ZM336.329 168.62L423.386 210.583L374.534 174.883L336.329 168.62Z" fill="#E5E5E5"/>
<path d="M425.265 212.462L457.833 166.741L467.854 201.814L425.265 212.462ZM457.207 167.994L426.518 211.835L467.228 201.188L457.207 167.994Z" fill="#E5E5E5"/>
<path d="M425.891 212.462L374.534 174.883L457.207 166.741L425.891 212.462ZM375.786 174.883L425.891 211.835L457.207 167.367L375.786 174.883Z" fill="#E5E5E5"/>
<path d="M466.602 201.814L469.733 183.651L492.907 178.641V179.267L466.602 201.814ZM470.359 184.278L467.228 200.562L492.28 179.267L470.359 184.278Z" fill="#E5E5E5"/>
<path d="M467.228 201.814L457.207 166.741L493.533 178.641L467.228 201.814ZM457.833 167.367L467.228 200.562L492.907 178.641L457.833 167.367Z" fill="#E5E5E5"/>
<path d="M507.312 193.672L469.733 184.278L516.706 166.115L507.312 193.672ZM470.986 184.278L506.685 193.046L515.454 166.741L470.986 184.278Z" fill="#E5E5E5"/>
<path d="M470.359 184.278L516.08 166.115V166.741L493.533 179.267L470.359 184.278ZM512.948 167.367L472.865 183.025L492.906 178.641L512.948 167.367Z" fill="#E5E5E5"/>
<path d="M550.527 218.098L506.686 193.672L549.901 131.668V132.294L550.527 218.098ZM507.312 193.046L549.901 216.846V131.668L507.312 193.046Z" fill="#E5E5E5"/>
<path d="M507.312 193.046L515.454 166.115L549.901 131.041V130.415V131.041L507.312 193.046ZM516.08 166.115L507.938 191.793L548.648 133.547L516.08 166.115Z" fill="#E5E5E5"/>
<path d="M550.527 217.472L563.054 181.146L592.49 149.204H593.116L550.527 217.472ZM563.054 181.146L551.154 215.593L591.237 151.71L563.054 181.146Z" fill="#E5E5E5"/>
<path d="M549.901 218.099V131.041L593.116 149.204L549.901 218.099ZM550.527 131.668V216.846L592.49 149.831L550.527 131.668Z" fill="#E5E5E5"/>
<path d="M645.727 193.046L563.054 181.146V180.52L605.016 178.015L645.727 193.046ZM565.559 181.146L643.848 192.42L605.016 178.641L565.559 181.146Z" fill="#E5E5E5"/>
<path d="M562.427 181.146L592.49 148.578L605.016 178.641L562.427 181.146ZM592.49 149.831L563.68 180.52L604.39 178.015L592.49 149.831Z" fill="#E5E5E5"/>
<path d="M646.353 193.046L701.468 151.083L702.094 150.457L701.468 151.71L688.316 173.004L646.353 193.046ZM700.216 152.962L647.605 192.42L687.689 173.63L700.216 152.962Z" fill="#E5E5E5"/>
<path d="M645.726 193.046L603.764 178.641L701.468 151.71V152.336L645.726 193.046ZM605.643 178.641L645.726 192.42L699.589 151.71L605.643 178.641Z" fill="#E5E5E5"/>
<path d="M729.652 198.683L688.316 173.63L697.084 139.183L729.652 198.683ZM688.942 173.004L728.4 197.43L697.084 139.81L688.942 173.004Z" fill="#E5E5E5"/>
<path d="M688.942 173.004L697.084 139.183V138.557L701.468 151.71L688.942 173.004ZM697.084 139.81L688.942 171.125L700.842 151.083L697.084 139.81Z" fill="#E5E5E5"/>
<path d="M751.573 177.388L729.026 197.43L697.71 139.81L751.573 152.962L696.458 138.557L729.026 198.057L751.573 178.015V177.388Z" fill="#E5E5E5"/>
<path d="M348.855 250.667L428.397 209.33V209.957L425.891 212.462L348.855 250.667ZM426.518 210.583L388.939 229.998L425.265 211.835L426.518 210.583Z" fill="#E5E5E5"/>
<path d="M433.407 240.019L428.397 209.33L467.854 200.562L467.228 201.814L433.407 240.019ZM428.397 209.956L433.407 238.767L466.602 201.814L428.397 209.956Z" fill="#E5E5E5"/>
<path d="M425.891 212.462L428.397 209.33L467.854 200.562L467.228 201.814L425.891 212.462ZM428.397 209.956L426.518 211.835L455.954 204.32L428.397 209.956Z" fill="#E5E5E5"/>
<path d="M433.407 239.393L469.733 183.651H470.36V184.278L467.854 219.351L433.407 239.393ZM469.733 184.904L434.034 238.767L467.228 219.351L469.733 184.904Z" fill="#E5E5E5"/>
<path d="M433.407 239.393L469.733 183.651H470.36V184.278L467.228 201.814L433.407 239.393ZM469.733 185.53L435.286 236.888L466.602 201.188L469.733 185.53Z" fill="#E5E5E5"/>
<path d="M467.854 219.351L507.312 192.42L528.606 208.704L467.854 219.351ZM507.312 193.672L469.107 219.351L527.98 209.33L507.312 193.672Z" fill="#E5E5E5"/>
<path d="M467.228 219.978L469.733 184.278L506.685 193.046L467.228 219.978ZM470.359 184.278L467.854 218.725L506.685 193.046L470.359 184.278Z" fill="#E5E5E5"/>
<path d="M558.043 251.293L527.354 208.078L550.527 216.846L558.043 251.293ZM528.606 209.33L557.417 250.04L549.901 217.472L528.606 209.33Z" fill="#E5E5E5"/>
<path d="M551.153 218.099H550.527L527.98 209.33L507.312 193.672V193.046L550.527 217.472L551.153 218.099ZM527.98 208.704L547.396 216.22L509.817 195.551L527.98 208.704Z" fill="#E5E5E5"/>
<path d="M557.417 251.293L562.427 180.52L612.532 236.888H611.906L557.417 251.293ZM563.053 181.773L558.043 251.293L612.532 237.514L563.053 181.773Z" fill="#E5E5E5"/>
<path d="M558.043 251.293L550.527 217.472L563.68 180.52V181.146L558.043 251.293ZM550.527 217.472L558.043 249.414L563.054 183.025L550.527 217.472Z" fill="#E5E5E5"/>
<path d="M612.532 237.514L645.726 193.046V192.42V193.046V193.672L646.353 234.383L612.532 237.514ZM645.726 193.672L613.784 236.888L646.353 233.13L645.726 193.672Z" fill="#E5E5E5"/>
<path d="M613.158 237.514L562.427 180.52L645.726 192.42L613.158 237.514ZM563.68 181.146L613.158 236.262L645.726 193.046L563.68 181.146Z" fill="#E5E5E5"/>
<path d="M646.353 233.756L688.942 172.378V173.004L680.8 232.504L646.353 233.756ZM688.316 174.257L646.979 233.13L680.174 231.877L688.316 174.257Z" fill="#E5E5E5"/>
<path d="M646.353 234.383L645.726 193.046L688.942 172.378L646.353 234.383ZM646.353 193.046L646.979 232.504L687.689 173.63L646.353 193.046Z" fill="#E5E5E5"/>
<path d="M725.894 258.182L679.547 232.504L728.399 198.057H729.026L725.894 258.182ZM680.8 231.877L725.894 256.93L729.026 198.057L680.8 231.877Z" fill="#E5E5E5"/>
<path d="M680.173 232.504L688.315 172.378L729.652 197.43H729.026L680.173 232.504ZM688.315 173.63L680.173 231.877L728.399 198.056L688.315 173.63Z" fill="#E5E5E5"/>
<path d="M368.271 257.556L429.023 209.33V209.957L387.686 256.93L368.271 257.556ZM426.518 211.835L369.523 256.93L387.06 255.677L426.518 211.835Z" fill="#E5E5E5"/>
<path d="M440.297 283.235L367.645 256.93L433.407 239.393L440.297 283.235ZM369.523 257.556L439.67 282.609L432.781 239.393L369.523 257.556Z" fill="#E5E5E5"/>
<path d="M368.897 257.556L428.397 209.33L433.407 239.393L368.897 257.556ZM428.397 209.957L370.15 256.93L433.407 239.393L428.397 209.957Z" fill="#E5E5E5"/>
<path d="M489.775 288.245L439.67 283.235L467.228 218.725V219.351L489.775 288.245ZM440.297 282.609L488.522 287.619L467.228 219.978L440.297 282.609Z" fill="#E5E5E5"/>
<path d="M440.297 283.861L433.407 239.393L467.854 218.725V219.351L440.297 283.861ZM433.407 239.393L440.297 281.982L467.228 219.978L433.407 239.393Z" fill="#E5E5E5"/>
<path d="M502.927 295.761L489.149 288.245L527.354 209.33V208.704L527.98 209.33L502.927 295.761ZM489.775 288.245L502.301 295.135L526.727 211.835L489.775 288.245Z" fill="#E5E5E5"/>
<path d="M489.149 288.872L467.228 219.351L527.98 208.704L489.149 288.872ZM467.854 219.351L489.775 286.993L527.98 208.704L467.854 219.351Z" fill="#E5E5E5"/>
<path d="M565.558 299.519L501.675 295.761L502.301 295.135L558.043 250.667L565.558 299.519ZM502.927 295.135L564.932 298.893L558.043 251.919L502.927 295.135Z" fill="#E5E5E5"/>
<path d="M502.301 295.761V295.135L527.98 208.078L558.043 250.667L502.301 295.761ZM527.98 209.33L502.928 294.508L557.417 251.293L527.98 209.33Z" fill="#E5E5E5"/>
<path d="M565.559 299.519L613.158 236.888V237.514V263.819L565.559 299.519ZM612.532 238.141L566.185 298.266L611.906 263.819L612.532 238.141Z" fill="#E5E5E5"/>
<path d="M564.932 299.519L557.417 251.293L613.158 236.888L564.932 299.519ZM558.043 251.293L565.559 298.266L612.532 237.514L558.043 251.293Z" fill="#E5E5E5"/>
<path d="M620.048 265.698L612.532 263.819H613.158L646.979 233.756H647.605L646.979 234.383L620.048 265.698ZM613.158 263.193L619.421 264.446L643.847 235.009L613.158 263.193Z" fill="#E5E5E5"/>
<path d="M612.532 263.819V236.888L646.353 233.13H646.979L646.353 233.756L612.532 263.819ZM613.158 237.514V263.193L645.726 233.756L613.158 237.514Z" fill="#E5E5E5"/>
<path d="M663.89 275.093L619.422 265.072H620.048L680.8 231.877V232.504L663.89 275.093ZM620.674 265.072L663.89 274.466L680.174 232.504L620.674 265.072Z" fill="#E5E5E5"/>
<path d="M620.048 265.072L646.353 233.13L680.173 231.877V232.504L620.048 265.072ZM646.353 233.756L620.674 264.446L678.921 232.504L646.353 233.756Z" fill="#E5E5E5"/>
<path d="M663.889 275.093L725.894 256.93L736.542 272.587L663.889 275.093ZM725.268 257.556L665.142 274.466L734.663 272.587L725.268 257.556Z" fill="#E5E5E5"/>
<path d="M663.263 275.093L680.174 231.877L725.894 257.556L663.263 275.093ZM680.174 232.504L663.89 274.466L724.642 257.556L680.174 232.504Z" fill="#E5E5E5"/>
<path d="M388.939 305.156L368.897 257.556H369.523L407.102 297.64L388.939 305.156ZM369.523 258.809L388.939 304.529L405.223 297.014L369.523 258.809Z" fill="#E5E5E5"/>
<path d="M405.849 297.014L415.244 292.629L440.296 282.609V283.235L405.849 297.014Z" fill="#E5E5E5"/>
<path d="M405.85 297.014L368.897 257.556V256.93L440.297 282.608L405.85 297.014ZM369.523 258.182L405.85 297.014L439.67 283.235L369.523 258.182Z" fill="#E5E5E5"/>
<path d="M481.633 295.135L415.87 293.256V292.629L489.775 288.245L481.633 295.135ZM420.881 292.629L481.633 294.508L489.149 288.245L420.881 292.629Z" fill="#E5E5E5"/>
<path d="M415.244 293.256L439.67 283.235L489.775 288.245L489.149 288.872L415.244 293.256ZM440.296 283.235L417.123 292.63L486.643 288.245L440.296 283.235Z" fill="#E5E5E5"/>
<path d="M506.059 301.398L481.007 295.135V294.508L502.301 295.135L506.059 301.398ZM483.512 295.135L505.433 300.771L502.301 295.761L483.512 295.135Z" fill="#E5E5E5"/>
<path d="M502.927 295.135L481.007 294.508L489.775 287.619L502.927 295.135ZM482.259 294.508L501.675 295.135L489.775 288.872L482.259 294.508Z" fill="#E5E5E5"/>
<path d="M506.059 301.398L574.953 290.124L565.558 299.519L506.059 301.398ZM573.7 290.751L509.817 300.772L565.558 298.893L573.7 290.751Z" fill="#E5E5E5"/>
<path d="M505.433 301.398L501.675 295.135L564.932 298.893V299.519L505.433 301.398ZM502.927 295.135L506.059 300.772L560.548 298.893L502.927 295.135Z" fill="#E5E5E5"/>
<path d="M582.469 297.64L573.7 290.751L612.532 263.819L613.158 264.445L582.469 297.64ZM574.327 290.751L582.469 297.014L611.279 265.072L574.327 290.751Z" fill="#E5E5E5"/>
<path d="M565.559 299.519L574.327 290.124L613.158 263.193V263.819L565.559 299.519ZM602.511 271.335L574.327 290.75L568.064 297.014L602.511 271.335Z" fill="#E5E5E5"/>
<path d="M622.553 310.166L581.843 297.014L619.422 264.445V265.072L622.553 310.166ZM583.096 297.014L622.553 309.54L620.048 265.698L583.096 297.014Z" fill="#E5E5E5"/>
<path d="M582.469 297.64L612.532 263.193L619.421 265.072H620.048L582.469 297.64ZM613.158 263.819L585.601 294.508L619.421 265.072L613.158 263.819Z" fill="#E5E5E5"/>
<path d="M621.927 310.166L663.889 273.84V274.467L678.921 301.398L621.927 310.166ZM663.889 275.093L623.805 309.54L678.921 301.398L663.889 275.093Z" fill="#E5E5E5"/>
<path d="M622.553 310.793L619.422 265.072L663.89 275.093H663.263L622.553 310.793ZM620.048 265.698L622.553 309.54L663.263 275.093L620.048 265.698Z" fill="#E5E5E5"/>
<path d="M678.921 302.024L735.915 273.214V273.84L703.973 301.398L678.921 302.024ZM734.036 273.84L679.547 301.398L703.347 300.772L734.036 273.84Z" fill="#E5E5E5"/>
<path d="M678.295 302.024L663.263 274.466H663.89L735.915 272.587V273.214L678.295 302.024ZM663.89 275.093L678.295 301.398L734.036 273.214L663.89 275.093Z" fill="#E5E5E5"/>
<path d="M751.573 273.84L730.905 297.64L704.6 300.145L751.573 267.577V266.951L702.721 300.771L731.531 298.266L751.573 274.466V273.84Z" fill="#E5E5E5"/>
<path d="M751.573 266.951L707.105 297.64L735.915 273.214L751.573 265.072V264.445L735.289 272.588L703.347 300.772H703.973L751.573 267.577V266.951Z" fill="#E5E5E5"/>
<path d="M370.776 326.45L405.849 296.387L415.87 292.003V292.629L370.776 326.45ZM405.849 297.014L377.665 320.813L413.991 293.882L405.849 297.014Z" fill="#E5E5E5"/>
<path d="M583.095 345.24L520.464 328.329L574.327 290.751L574.953 290.124V290.751L583.095 345.24ZM521.09 327.703L581.843 343.987L573.701 290.751L521.09 327.703Z" fill="#E5E5E5"/>
<path d="M520.464 328.329L505.433 300.772H506.059L574.953 290.124L574.327 290.751L520.464 328.329ZM506.059 301.398L520.464 327.703L573.075 290.751L506.059 301.398Z" fill="#E5E5E5"/>
<path d="M582.469 344.613L573.7 290.124L582.469 297.014V344.613ZM574.327 290.751L582.469 341.482V297.014L574.327 290.751Z" fill="#E5E5E5"/>
<path d="M623.179 377.182L604.39 347.745L622.553 310.166L623.179 309.54V310.166V377.182ZM604.39 347.119L622.553 375.303V310.793L604.39 347.119Z" fill="#E5E5E5"/>
<path d="M622.553 376.555L581.843 297.014H582.469L621.927 309.54L622.553 308.914V309.54V376.555ZM583.096 297.64L622.553 375.303V310.166L583.096 297.64Z" fill="#E5E5E5"/>
<path d="M603.764 348.371L622.553 310.166L678.921 302.024V302.65L603.764 348.371ZM622.553 310.166L605.016 346.492L677.668 302.024L622.553 310.166Z" fill="#E5E5E5"/>
</g>
<path d="M63.1184 10.6837C61.8615 10.6837 61.233 11.3121 61.233 12.569C61.233 13.8259 61.8615 14.4543 63.1184 14.4543C64.3752 14.4543 65.0037 13.8259 65.0037 12.569C65.0037 11.3121 63.7468 10.6837 63.1184 10.6837Z" fill="#0A46F0"/>
<path d="M70.0312 10.0551C71.2881 10.0551 71.9165 9.42667 71.9165 8.16979C71.9165 6.9129 71.2881 6.28445 70.0312 6.28445C68.7743 6.28445 68.1459 6.9129 68.1459 8.16979C68.1459 9.42667 68.7743 10.0551 70.0312 10.0551Z" fill="#FFDE17"/>
<path d="M429.501 20.7387C430.758 20.7387 431.387 19.4818 431.387 18.8534C431.387 17.5965 430.13 16.968 429.501 16.968C428.245 16.968 427.616 18.2249 427.616 18.8534C427.616 19.4818 428.245 20.7387 429.501 20.7387Z" fill="#4B4B4B"/>
<path d="M24.7833 17.5964C26.0402 17.5964 27.2971 16.3395 27.2971 15.0826C27.2971 13.1973 26.0402 11.9404 24.7833 11.9404C22.898 11.9404 21.6411 13.1973 21.6411 14.4542C21.6411 16.3395 22.898 17.5964 24.7833 17.5964Z" fill="#4B4B4B"/>
<path d="M163.669 59.7022C165.555 59.7022 166.812 58.4453 166.812 56.56C166.812 54.6746 165.555 53.4178 163.669 53.4178C161.784 53.4178 160.527 54.6746 160.527 56.56C160.527 58.4453 161.784 59.7022 163.669 59.7022Z" fill="#FFDE17"/>
<path d="M149.844 46.5047C151.101 46.5047 151.729 45.8763 151.729 44.6194C151.729 43.3625 150.472 42.7341 149.844 42.7341C148.587 42.7341 147.958 43.3625 147.958 44.6194C147.958 45.8763 148.587 46.5047 149.844 46.5047Z" fill="#ED1C24"/>
<path d="M261.707 15.0825C262.964 15.0825 263.592 14.4541 263.592 13.1972C263.592 11.9403 262.964 11.3119 261.707 11.3119C260.45 11.3119 259.821 11.9403 259.821 13.1972C259.821 14.4541 260.45 15.0825 261.707 15.0825Z" fill="#FFDE17"/>
<path d="M273.647 96.1521C274.904 96.1521 275.533 94.8952 275.533 94.2667C275.533 93.0099 274.276 92.3814 273.647 92.3814C272.39 92.3814 271.762 93.6383 271.762 94.2667C271.133 94.8952 272.39 96.1521 273.647 96.1521Z" fill="#00A14B"/>
<path d="M284.331 25.7662C284.331 23.8809 283.074 22.624 281.188 22.624C279.303 22.624 278.046 23.8809 278.046 25.7662C278.046 27.6516 279.303 28.9085 281.188 28.9085C283.074 28.9085 284.331 27.6516 284.331 25.7662Z" fill="#4B4B4B"/>
<path d="M337.12 57.1884C335.863 57.1884 334.606 58.4453 334.606 59.7022C334.606 60.9591 335.863 62.216 337.12 62.216C338.377 62.216 339.634 60.9591 339.634 59.7022C339.634 58.4453 338.377 57.1884 337.12 57.1884Z" fill="#0A46F0"/>
<path d="M359.744 54.0462C358.487 54.0462 357.23 55.3031 357.23 56.56C357.23 57.8169 358.487 59.0738 359.744 59.0738C361.001 59.0738 362.258 57.8169 362.258 56.56C362.258 55.3031 361.001 54.0462 359.744 54.0462Z" fill="#FFDE17"/>
<path d="M420.075 52.7892C420.075 54.6746 421.96 56.5599 423.845 56.5599C425.731 56.5599 427.616 54.6746 427.616 52.7892C427.616 50.9039 425.731 49.0186 423.845 49.0186C421.96 49.647 420.075 50.9039 420.075 52.7892Z" fill="#ED1C24"/>
<path d="M32.953 89.8674C31.6962 89.8674 31.0677 91.1243 31.0677 91.7527C31.0677 93.0096 32.3246 93.6381 32.953 93.6381C34.2099 93.6381 34.8384 92.3812 34.8384 91.7527C34.8384 91.1243 34.2099 89.8674 32.953 89.8674Z" fill="#F26522"/>
<path d="M34.8384 52.7893C34.8384 51.5325 33.5815 50.2756 32.3246 50.2756C31.0677 50.2756 29.8108 51.5325 29.8108 52.7893C29.8108 54.0462 31.0677 55.3031 32.3246 55.3031C33.5815 55.3031 34.8384 54.0462 34.8384 52.7893Z" fill="#ED1C24"/>
<path d="M70.6595 84.2114C72.5449 84.2114 73.8018 82.9546 73.8018 81.0692C73.8018 79.1839 72.5449 77.927 70.6595 77.927C68.7742 77.927 67.5173 79.1839 67.5173 81.0692C66.8889 82.3261 68.7742 84.2114 70.6595 84.2114Z" fill="#FFDE17"/>
<path d="M119.05 127.574C117.165 127.574 115.908 128.831 115.908 130.716C115.908 132.602 117.165 133.859 119.05 133.859C120.935 133.859 122.192 132.602 122.192 130.716C122.192 128.831 120.935 127.574 119.05 127.574Z" fill="#FFDE17"/>
<path d="M143.559 89.8674C143.559 87.9821 142.302 86.7252 140.417 86.7252C138.532 86.7252 137.275 87.9821 137.275 89.8674C137.275 91.7528 138.532 93.0097 140.417 93.0097C142.302 93.0097 143.559 91.7528 143.559 89.8674Z" fill="#FFDE17"/>
<path d="M151.729 49.647C150.472 49.647 149.844 50.9039 149.844 52.1608C149.844 53.4177 151.101 54.6746 152.357 54.6746C153.614 54.6746 154.742 54.4929 154.871 52.1608C155 49.8287 152.986 49.647 151.729 49.647Z" fill="#0A46F0"/>
<path d="M209.546 84.84C207.66 84.84 206.404 86.0969 206.404 87.9822C206.404 89.8676 207.66 91.1245 209.546 91.1245C211.431 91.1245 212.688 89.8676 212.688 87.9822C212.688 86.7254 211.431 84.84 209.546 84.84Z" fill="#ED1C24"/>
<path d="M275.533 117.519C274.276 117.519 273.019 118.776 273.019 120.033C273.019 121.29 274.276 122.547 275.533 122.547C276.789 122.547 278.046 121.29 278.046 120.033C278.046 118.776 276.789 117.519 275.533 117.519Z" fill="#F26522"/>
<path d="M325.179 72.271C327.065 72.271 328.95 71.0141 328.95 68.5004C328.95 66.615 327.065 64.7297 325.179 64.7297C323.294 64.7297 321.409 65.9866 321.409 68.5004C322.037 71.0141 323.294 72.271 325.179 72.271Z" fill="#0A46F0"/>
<path d="M327.065 84.84C325.18 84.84 323.923 86.0969 323.923 87.9822C323.923 89.8676 325.18 91.1245 327.065 91.1245C328.95 91.1245 330.207 89.8676 330.207 87.9822C330.207 86.0969 328.95 84.84 327.065 84.84Z" fill="#7F3F98"/>
<path d="M298.157 115.005C296.9 115.005 295.643 116.262 295.643 117.519C295.643 118.776 296.9 120.033 298.157 120.033C299.414 120.033 300.67 118.776 300.67 117.519C301.299 116.262 300.042 115.005 298.157 115.005Z" fill="#FFDE17"/>
<path d="M391.166 49.6472C392.423 49.6472 393.68 48.3903 393.68 47.1334C393.68 45.8765 392.423 44.6196 391.166 44.6196C389.909 44.6196 388.652 45.8765 388.652 47.1334C388.652 48.3903 389.909 49.6472 391.166 49.6472Z" fill="#ED1C24"/>
<path d="M315.753 131.345C317.01 131.345 318.267 130.088 318.267 128.831C318.267 127.574 317.01 126.317 315.753 126.317C314.496 126.317 313.239 127.574 313.239 128.831C313.239 130.088 314.496 131.345 315.753 131.345Z" fill="#00AEEF"/>
<path d="M399.964 62.8443C401.85 62.8443 403.735 60.959 403.735 59.0737C403.735 57.1883 401.85 55.303 399.964 55.303C398.079 55.303 396.194 57.1883 396.194 59.0737C396.194 60.959 398.079 62.8443 399.964 62.8443Z" fill="#FFDE17"/>
<path d="M73.1734 116.891C73.1734 115.005 71.9165 113.748 70.0312 113.748C68.1459 113.748 66.889 115.005 66.889 116.891C66.889 118.776 68.1459 120.033 70.0312 120.033C71.9165 120.033 73.1734 118.776 73.1734 116.891Z" fill="#FFDE17"/>
<path d="M166.812 94.2666C166.812 93.0098 165.555 91.7529 164.298 91.7529C163.041 91.7529 161.784 93.0098 161.784 94.2666C161.784 95.5235 163.041 96.7804 164.298 96.7804C165.555 96.7804 166.812 95.5235 166.812 94.2666Z" fill="#F26522"/>
<path d="M180.637 142.657C180.637 141.4 179.381 140.143 178.124 140.143C176.867 140.143 175.61 141.4 175.61 142.657C175.61 143.914 176.867 145.171 178.124 145.171C180.009 145.171 180.637 143.914 180.637 142.657Z" fill="#F26522"/>
<path d="M238.454 107.464C237.197 107.464 235.941 108.721 235.941 109.978C235.941 111.235 237.197 112.492 238.454 112.492C239.711 112.492 240.968 111.235 240.968 109.978C240.968 108.721 239.711 107.464 238.454 107.464Z" fill="#FFDE17"/>
<path d="M398.079 131.345C399.336 131.345 400.593 130.088 400.593 128.831C400.593 127.574 399.336 126.317 398.079 126.317C396.822 126.317 395.565 127.574 395.565 128.831C395.565 130.716 396.822 131.345 398.079 131.345Z" fill="#F26522"/>
<path d="M382.996 108.721C382.996 106.835 381.74 105.578 379.854 105.578C377.969 105.578 376.712 106.835 376.712 108.721C376.712 110.606 377.969 111.863 379.854 111.863C381.74 111.863 382.996 110.606 382.996 108.721Z" fill="#FFDE17"/>
<path d="M135.389 121.29C133.504 121.29 131.619 122.547 131.619 125.06C131.619 126.946 132.876 128.831 135.389 128.831C137.275 128.831 139.16 127.574 139.16 125.06C139.16 122.547 137.275 121.29 135.389 121.29Z" fill="#ED1C24"/>
<path d="M289.987 145.171C289.987 143.285 288.73 142.028 286.844 142.028C284.959 142.028 283.702 143.285 283.702 145.171C283.702 147.056 284.959 148.313 286.844 148.313C288.73 148.313 289.987 146.428 289.987 145.171Z" fill="#FFDE17"/>
<path d="M286.216 132.602C286.216 130.716 284.959 129.459 283.074 129.459C281.189 129.459 279.932 130.716 279.932 132.602C279.932 134.487 281.189 135.744 283.074 135.744C284.959 135.744 286.216 133.859 286.216 132.602Z" fill="#00A14B"/>
<path d="M422.588 3.77066C423.845 3.77066 424.474 2.51378 424.474 1.88533C424.474 0.828717 423.5 1.82893e-05 422.588 0C420.991 -3.20476e-05 420.5 1.32874 420.5 1.88533C420.5 2.44192 421.331 3.77066 422.588 3.77066Z" fill="#0A46F0"/>
<path d="M485.142 18.1132C486.878 18.1132 488.284 16.7064 488.284 14.971C488.284 13.2356 486.878 11.8287 485.142 11.8287C483.407 11.8287 482 13.2356 482 14.971C482 16.7064 483.407 18.1132 485.142 18.1132Z" fill="#ED1C24"/>
<path d="M521.883 11.3119C519.997 11.3119 518.74 12.5687 518.74 14.4541C518.74 16.3394 519.997 17.5963 521.883 17.5963C523.768 17.5963 525.025 16.3394 525.025 14.4541C525.025 12.5687 523.768 11.3119 521.883 11.3119Z" fill="#FFDE17"/>
<path d="M367.914 82.3261C367.914 83.583 369.171 84.8399 370.428 84.8399C371.684 84.8399 372.941 83.583 372.941 82.3261C372.941 81.0692 371.684 79.8123 370.428 79.8123C369.171 79.1839 367.914 80.4408 367.914 82.3261Z" fill="#ED1C24"/>
<path d="M369.171 69.7572C369.171 68.5003 367.914 67.8719 366.657 67.8719C365.4 67.8719 364.143 69.1288 364.143 69.7572C364.143 71.0141 365.4 71.6426 366.657 71.6426C367.914 72.271 369.171 71.0141 369.171 69.7572Z" fill="#FFDE17"/>
<path d="M382.368 47.7616C383.625 47.7616 384.882 46.5047 384.882 45.2478C384.882 43.991 383.625 42.7341 382.368 42.7341C381.111 42.7341 379.854 43.991 379.854 45.2478C379.854 46.5047 380.483 47.7616 382.368 47.7616Z" fill="#0A46F0"/>
<path d="M447.726 62.216C448.983 62.216 450.24 60.9591 450.24 59.7022C450.24 58.4453 448.983 57.1884 447.726 57.1884C446.469 57.1884 445.212 58.4453 445.212 59.7022C445.212 60.9591 446.469 62.216 447.726 62.216Z" fill="#ED1C24"/>
<path d="M440.185 24.5094C441.442 24.5094 442.699 23.2525 442.699 21.9956C442.699 20.7387 441.442 19.4818 440.185 19.4818C438.928 19.4818 437.671 20.7387 437.671 21.9956C437.671 23.2525 438.299 24.5094 440.185 24.5094Z" fill="#4B4B4B"/>
<path d="M532.566 26.3946C533.823 26.3946 535.08 25.1377 535.08 23.8808C535.08 22.624 533.823 21.3671 532.566 21.3671C531.309 21.3671 530.052 22.624 530.052 23.8808C530.052 25.1377 531.309 26.3946 532.566 26.3946Z" fill="#0A46F0"/>
<path d="M480.405 19.4818C480.405 18.2249 479.148 16.968 477.891 16.968C476.634 16.968 475.378 18.2249 475.378 19.4818C475.378 20.7387 476.634 21.9956 477.891 21.9956C479.777 21.9956 480.405 20.7387 480.405 19.4818Z" fill="#FFDE17"/>
<path d="M565.245 53.4177C566.502 53.4177 567.131 52.7893 567.131 51.5324C567.131 50.2755 565.874 49.647 565.245 49.647C563.988 49.647 563.36 50.2755 563.36 51.5324C563.36 52.7893 563.988 53.4177 565.245 53.4177Z" fill="#4B4B4B"/>
<path d="M699.732 32.6792C699.732 30.7938 698.475 29.537 696.59 29.537C694.705 29.537 693.448 30.7938 693.448 32.6792C693.448 34.5645 694.705 35.8214 696.59 35.8214C698.475 35.8214 699.732 34.5645 699.732 32.6792Z" fill="#ED1C24"/>
<path d="M677.108 23.8809C679.191 23.8809 680.879 22.1927 680.879 20.1103C680.879 18.0278 679.191 16.3396 677.108 16.3396C675.026 16.3396 673.338 18.0278 673.338 20.1103C673.338 22.1927 675.026 23.8809 677.108 23.8809Z" fill="#FFDE17"/>
<path d="M388.652 96.1519C389.909 96.1519 391.166 94.8951 391.166 93.6382C391.166 92.3813 389.909 91.1244 388.652 91.1244C387.396 91.1244 386.139 92.3813 386.139 93.6382C386.139 94.8951 387.396 96.1519 388.652 96.1519Z" fill="#00A14B"/>
<path d="M448.355 96.1519C446.469 96.1519 445.212 97.4088 445.212 99.2941C445.212 101.179 446.469 102.436 448.355 102.436C450.24 102.436 451.497 101.179 451.497 99.2941C451.497 97.4088 450.24 96.1519 448.355 96.1519Z" fill="#FFDE17"/>
<path d="M489.832 123.803C489.832 121.918 487.946 120.033 486.061 120.033C484.176 120.033 482.29 121.918 482.29 123.803C482.29 125.689 484.176 127.574 486.061 127.574C487.946 127.574 489.832 126.317 489.832 123.803Z" fill="#F26522"/>
<path d="M486.061 85.4684C484.804 85.4684 483.547 86.7253 483.547 87.9822C483.547 89.2391 484.804 90.496 486.061 90.496C487.318 90.496 488.575 89.2391 488.575 87.9822C488.575 86.7253 487.318 85.4684 486.061 85.4684Z" fill="#F26522"/>
<path d="M567.131 56.56C565.874 56.56 563.988 57.8169 563.988 59.0738C563.988 60.3307 565.245 61.5875 567.131 61.5875C568.387 61.5875 570.273 60.3307 570.273 59.0738C570.273 57.8169 569.016 56.56 567.131 56.56Z" fill="#FFDE17"/>
<path d="M534.452 133.859C532.566 133.859 530.681 135.744 530.681 137.629C530.681 139.515 532.566 141.4 534.452 141.4C536.337 141.4 538.222 139.515 538.222 137.629C538.222 135.744 536.337 133.859 534.452 133.859Z" fill="#F26522"/>
<path d="M579.071 65.3582C580.328 65.3582 580.956 64.7297 580.956 63.4728C580.956 62.2159 580.328 61.5875 579.071 61.5875C577.814 61.5875 577.186 62.2159 577.186 63.4728C577.186 64.7297 578.442 65.3582 579.071 65.3582Z" fill="#ED1C24"/>
<path d="M555.819 100.551C557.704 100.551 558.961 99.2942 558.961 97.4089C558.961 95.5235 557.704 94.2666 555.819 94.2666C553.933 94.2666 552.676 95.5235 552.676 97.4089C552.676 98.6657 553.933 100.551 555.819 100.551Z" fill="#00A14B"/>
<path d="M582.213 101.18C582.213 99.9227 580.956 98.6658 579.699 98.6658C578.442 98.6658 577.186 99.9227 577.186 101.18C577.186 102.436 578.442 103.693 579.699 103.693C580.956 103.693 582.213 102.436 582.213 101.18Z" fill="#00AEEF"/>
<path d="M624.948 92.3814C623.062 92.3814 621.805 93.6383 621.805 95.5236C621.805 97.409 623.062 98.6659 624.948 98.6659C626.833 98.6659 628.09 97.409 628.09 95.5236C628.09 93.6383 626.833 92.3814 624.948 92.3814Z" fill="#FFDE17"/>
<path d="M692.819 100.551C692.819 98.6657 690.934 96.7803 689.049 96.7803C687.163 96.7803 685.278 98.6657 685.278 100.551C685.278 102.436 687.163 104.322 689.049 104.322C690.934 104.322 692.819 103.065 692.819 100.551Z" fill="#00A14B"/>
<path d="M690.934 124.432C689.049 124.432 687.792 125.689 687.792 127.574C687.792 129.459 689.049 130.716 690.934 130.716C692.819 130.716 694.076 129.459 694.076 127.574C694.076 125.689 692.819 124.432 690.934 124.432Z" fill="#00A14B"/>
<path d="M410.648 99.2941C408.763 99.2941 407.506 100.551 407.506 102.436C407.506 104.322 408.763 105.579 410.648 105.579C412.533 105.579 413.79 104.322 413.79 102.436C413.79 100.551 411.905 99.2941 410.648 99.2941Z" fill="#F26522"/>
<path d="M384.882 130.088C384.882 128.831 383.625 128.203 382.996 128.203C381.739 128.203 381.111 128.831 381.111 130.088C381.111 131.345 382.368 131.973 382.996 131.973C383.625 131.973 384.882 130.716 384.882 130.088Z" fill="#F26522"/>
<path d="M653.856 114.377C652.599 114.377 651.342 115.634 651.342 116.891C651.342 118.148 652.599 119.404 653.856 119.404C655.113 119.404 656.37 118.148 656.37 116.891C656.37 115.634 655.113 114.377 653.856 114.377Z" fill="#FFDE17"/>
<path d="M714.186 122.547C712.93 122.547 711.673 123.804 711.673 125.06C711.673 126.317 712.93 127.574 714.186 127.574C715.443 127.574 716.7 126.317 716.7 125.06C716.7 123.804 715.443 122.547 714.186 122.547Z" fill="#FFDE17"/>
<path d="M551.42 128.831C550.163 128.831 548.906 130.088 548.906 131.345C548.906 132.602 550.163 133.859 551.42 133.859C552.676 133.859 553.933 132.602 553.933 131.345C553.933 130.088 552.676 128.831 551.42 128.831Z" fill="#00A14B"/>
<path d="M701.618 139.515C701.618 137.629 700.361 136.372 698.475 136.372C696.59 136.372 695.333 137.629 695.333 139.515C695.333 141.4 696.59 142.657 698.475 142.657C700.361 142.657 701.618 141.4 701.618 139.515Z" fill="#F26522"/>
</g>
<defs>
<clipPath id="clip0">
<rect width="751.573" height="386.434" fill="white" transform="translate(0 1.39496)"/>
</clipPath>
</defs>
</svg>
